<svg width="64" height="67" viewBox="0 0 64 67" fill="none" xmlns="http://www.w3.org/2000/svg">
<path d="M18.5068 59.856H2.13333V10.3199H42.6667V31.0426C42.6667 31.3163 42.779 31.5788 42.9791 31.7723C43.1791 31.9659 43.4504 32.0746 43.7333 32.0746C44.0162 32.0746 44.2875 31.9659 44.4876 31.7723C44.6876 31.5788 44.8 31.3163 44.8 31.0426V9.28792C44.8 9.01422 44.6876 8.75173 44.4876 8.55819C44.2875 8.36465 44.0162 8.25592 43.7333 8.25592H40.5333V1.03191C40.5334 0.877382 40.4975 0.72482 40.4284 0.585493C40.3593 0.446166 40.2588 0.323631 40.1342 0.226939C40.0096 0.130246 39.8642 0.0618645 39.7086 0.0268442C39.553 -0.0081762 39.3913 -0.00894103 39.2354 0.0246062L0.835413 8.28062C0.604314 8.3421 0.399157 8.47256 0.249159 8.65342C0.0991605 8.83428 0.0119686 9.05632 0 9.28792V60.888C0 61.1617 0.112381 61.4242 0.312419 61.6177C0.512458 61.8113 0.783769 61.92 1.06667 61.92H18.5068C18.7897 61.92 19.061 61.8113 19.261 61.6177C19.4611 61.4242 19.5734 61.1617 19.5734 60.888C19.5734 60.6143 19.4611 60.3518 19.261 60.1583C19.061 59.9647 18.7897 59.856 18.5068 59.856ZM38.4 8.25592H10.7832L38.4 2.31838V8.25592Z" fill="black"/>
<path d="M39.4666 32.6938C39.7495 32.6937 40.0208 32.585 40.2208 32.3915C40.4209 32.1979 40.5333 31.9355 40.5333 31.6618V18.5758C40.5333 18.3021 40.4209 18.0396 40.2208 17.8461C40.0208 17.6525 39.7495 17.5438 39.4666 17.5438C38.3354 17.5425 37.2509 17.1072 36.451 16.3333C35.6512 15.5595 35.2012 14.5102 35.1999 13.4158C35.1999 13.1421 35.0876 12.8796 34.8875 12.6861C34.6875 12.4925 34.4162 12.3838 34.1333 12.3838H10.6666C10.3837 12.3838 10.1124 12.4925 9.91235 12.6861C9.71232 12.8796 9.59993 13.1421 9.59993 13.4158C9.59864 14.5102 9.1487 15.5595 8.34883 16.3333C7.54895 17.1072 6.46446 17.5425 5.33327 17.5438C5.05037 17.5438 4.77906 17.6525 4.57902 17.8461C4.37898 18.0396 4.2666 18.3021 4.2666 18.5758V51.5998C4.2666 51.8735 4.37898 52.136 4.57902 52.3296C4.77906 52.5231 5.05037 52.6318 5.33327 52.6318C6.46446 52.6331 7.54895 53.0684 8.34883 53.8423C9.1487 54.6162 9.59864 55.6654 9.59993 56.7598C9.59993 57.0336 9.71232 57.296 9.91235 57.4896C10.1124 57.6831 10.3837 57.7919 10.6666 57.7919H21.3333C21.6162 57.7919 21.8875 57.6831 22.0875 57.4896C22.2876 57.296 22.3999 57.0336 22.3999 56.7598C22.3999 56.4861 22.2876 56.2237 22.0875 56.0301C21.8875 55.8366 21.6162 55.7278 21.3333 55.7278H11.6442C11.4206 54.4609 10.796 53.2923 9.85664 52.3835C8.91727 51.4746 7.70945 50.8703 6.39993 50.654V19.5216C7.70945 19.3053 8.91727 18.701 9.85664 17.7922C10.796 16.8833 11.4206 15.7148 11.6442 14.4478H33.1557C33.3793 15.7148 34.0039 16.8833 34.9432 17.7922C35.8826 18.701 37.0904 19.3053 38.3999 19.5216V31.6618C38.3999 31.9355 38.5123 32.1979 38.7124 32.3915C38.9124 32.585 39.1837 32.6937 39.4666 32.6938Z" fill="black"/>
<path d="M60.7999 59.8562V56.7602C60.7927 52.8291 59.4224 49.0139 56.9083 45.9257C54.3941 42.8375 50.8817 40.6547 46.9333 39.727V38.1842C46.9333 37.0893 46.4837 36.0394 45.6836 35.2652C44.8834 34.4911 43.7982 34.0562 42.6666 34.0562C41.535 34.0562 40.4498 34.4911 39.6496 35.2652C38.8494 36.0394 38.3999 37.0893 38.3999 38.1842V39.727C34.4515 40.6547 30.939 42.8375 28.4249 45.9257C25.9108 49.0139 24.5404 52.8291 24.5333 56.7602V59.8562C23.6846 59.8562 22.8706 60.1824 22.2705 60.763C21.6704 61.3436 21.3333 62.1311 21.3333 62.9522C21.3333 63.7733 21.6704 64.5608 22.2705 65.1414C22.8706 65.722 23.6846 66.0482 24.5333 66.0482H60.7999C61.6486 66.0482 62.4625 65.722 63.0627 65.1414C63.6628 64.5608 63.9999 63.7733 63.9999 62.9522C63.9999 62.1311 63.6628 61.3436 63.0627 60.763C62.4625 60.1824 61.6486 59.8562 60.7999 59.8562ZM40.5333 38.1842C40.5333 37.6368 40.758 37.1118 41.1581 36.7247C41.5582 36.3376 42.1008 36.1202 42.6666 36.1202C43.2324 36.1202 43.775 36.3376 44.1751 36.7247C44.5752 37.1118 44.7999 37.6368 44.7999 38.1842V39.3487C43.3836 39.172 41.9496 39.172 40.5333 39.3487V38.1842ZM26.6666 57.7922H51.1999C51.4828 57.7922 51.7541 57.6835 51.9542 57.4899C52.1542 57.2964 52.2666 57.0339 52.2666 56.7602C52.2666 56.4865 52.1542 56.224 51.9542 56.0304C51.7541 55.8369 51.4828 55.7282 51.1999 55.7282H26.7206C26.9864 51.8115 28.782 48.1392 31.7432 45.4561C34.7045 42.7731 38.6096 41.2802 42.6666 41.2802C46.7236 41.2802 50.6287 42.7731 53.5899 45.4561C56.5511 48.1392 58.3467 51.8115 58.6125 55.7282H55.4666C55.1837 55.7282 54.9124 55.8369 54.7123 56.0304C54.5123 56.224 54.3999 56.4865 54.3999 56.7602C54.3999 57.0339 54.5123 57.2964 54.7123 57.4899C54.9124 57.6835 55.1837 57.7922 55.4666 57.7922H58.6666V59.8562H26.6666V57.7922ZM60.7999 63.9842H24.5333C24.2504 63.9842 23.979 63.8755 23.779 63.6819C23.579 63.4884 23.4666 63.2259 23.4666 62.9522C23.4666 62.6785 23.579 62.416 23.779 62.2225C23.979 62.0289 24.2504 61.9202 24.5333 61.9202H60.7999C61.0828 61.9202 61.3541 62.0289 61.5542 62.2225C61.7542 62.416 61.8666 62.6785 61.8666 62.9522C61.8666 63.2259 61.7542 63.4884 61.5542 63.6819C61.3541 63.8755 61.0828 63.9842 60.7999 63.9842Z" fill="black"/>
<path d="M24.5332 16.5117C24.2503 16.5117 23.979 16.6204 23.779 16.814C23.5789 17.0075 23.4666 17.27 23.4666 17.5437V20.6397C23.4694 21.5524 23.7851 22.4384 24.3642 23.1589C24.9432 23.8794 25.753 24.3937 26.6666 24.6212V29.9277C26.6666 30.2014 26.7789 30.4639 26.979 30.6575C27.179 30.851 27.4503 30.9597 27.7332 30.9597C28.0161 30.9597 28.2874 30.851 28.4875 30.6575C28.6875 30.4639 28.7999 30.2014 28.7999 29.9277V24.6212C29.7134 24.3937 30.5232 23.8794 31.1023 23.1589C31.6813 22.4384 31.997 21.5524 31.9999 20.6397V17.5437C31.9999 17.27 31.8875 17.0075 31.6875 16.814C31.4874 16.6204 31.2161 16.5117 30.9332 16.5117C30.6503 16.5117 30.379 16.6204 30.179 16.814C29.9789 17.0075 29.8666 17.27 29.8666 17.5437V20.6397C29.8654 21.0004 29.7662 21.3544 29.579 21.6663C29.3918 21.9782 29.1231 22.237 28.7999 22.4167V17.5437C28.7999 17.27 28.6875 17.0075 28.4875 16.814C28.2874 16.6204 28.0161 16.5117 27.7332 16.5117C27.4503 16.5117 27.179 16.6204 26.979 16.814C26.7789 17.0075 26.6666 17.27 26.6666 17.5437V22.4167C26.3433 22.237 26.0747 21.9782 25.8874 21.6663C25.7002 21.3544 25.6011 21.0004 25.5999 20.6397V17.5437C25.5999 17.27 25.4875 17.0075 25.2875 16.814C25.0874 16.6204 24.8161 16.5117 24.5332 16.5117Z" fill="black"/>
<path d="M17.0667 30.9597C17.3496 30.9597 17.6209 30.851 17.821 30.6575C18.021 30.4639 18.1334 30.2014 18.1334 29.9277V25.6532C19.0469 25.4257 19.8567 24.9114 20.4358 24.1909C21.0148 23.4704 21.3305 22.5844 21.3334 21.6717C21.3334 19.6173 19.6318 16.5117 17.0667 16.5117C14.5016 16.5117 12.8 19.6173 12.8 21.6717C12.8029 22.5844 13.1186 23.4704 13.6977 24.1909C14.2767 24.9114 15.0865 25.4257 16 25.6532V29.9277C16 30.2014 16.1124 30.4639 16.3125 30.6575C16.5125 30.851 16.7838 30.9597 17.0667 30.9597ZM14.9334 21.6717C14.9334 20.3928 16.0365 18.5757 17.0667 18.5757C18.0969 18.5757 19.2 20.3928 19.2 21.6717C19.2 22.2191 18.9753 22.7441 18.5752 23.1312C18.1751 23.5183 17.6325 23.7357 17.0667 23.7357C16.5009 23.7357 15.9583 23.5183 15.5582 23.1312C15.1581 22.7441 14.9334 22.2191 14.9334 21.6717Z" fill="black"/>
<path d="M13.8667 34.0562H11.7334C11.4505 34.0562 11.1792 34.1649 10.9792 34.3584C10.7791 34.552 10.6667 34.8145 10.6667 35.0882C10.6667 35.3619 10.7791 35.6244 10.9792 35.8179C11.1792 36.0114 11.4505 36.1202 11.7334 36.1202H13.8667C14.1496 36.1202 14.421 36.0114 14.621 35.8179C14.821 35.6244 14.9334 35.3619 14.9334 35.0882C14.9334 34.8145 14.821 34.552 14.621 34.3584C14.421 34.1649 14.1496 34.0562 13.8667 34.0562Z" fill="black"/>
<path d="M34.1333 35.0882C34.1333 34.8145 34.0209 34.552 33.8209 34.3584C33.6209 34.1649 33.3495 34.0562 33.0666 34.0562H18.1333C17.8504 34.0562 17.5791 34.1649 17.3791 34.3584C17.179 34.552 17.0667 34.8145 17.0667 35.0882C17.0667 35.3619 17.179 35.6244 17.3791 35.8179C17.5791 36.0114 17.8504 36.1202 18.1333 36.1202H33.0666C33.3495 36.1202 33.6209 36.0114 33.8209 35.8179C34.0209 35.6244 34.1333 35.3619 34.1333 35.0882Z" fill="black"/>
<path d="M13.8667 39.2158H11.7334C11.4505 39.2158 11.1792 39.3245 10.9792 39.5181C10.7791 39.7116 10.6667 39.9741 10.6667 40.2478C10.6667 40.5215 10.7791 40.784 10.9792 40.9776C11.1792 41.1711 11.4505 41.2798 11.7334 41.2798H13.8667C14.1496 41.2798 14.421 41.1711 14.621 40.9776C14.821 40.784 14.9334 40.5215 14.9334 40.2478C14.9334 39.9741 14.821 39.7116 14.621 39.5181C14.421 39.3245 14.1496 39.2158 13.8667 39.2158Z" fill="black"/>
<path d="M29.8667 40.2478C29.8667 39.9741 29.7543 39.7116 29.5542 39.5181C29.3542 39.3245 29.0829 39.2158 28.8 39.2158H18.1333C17.8504 39.2158 17.5791 39.3245 17.3791 39.5181C17.179 39.7116 17.0667 39.9741 17.0667 40.2478C17.0667 40.5215 17.179 40.784 17.3791 40.9776C17.5791 41.1711 17.8504 41.2798 18.1333 41.2798H28.8C29.0829 41.2798 29.3542 41.1711 29.5542 40.9776C29.7543 40.784 29.8667 40.5215 29.8667 40.2478Z" fill="black"/>
<path d="M13.8667 44.376H11.7334C11.4505 44.376 11.1792 44.4847 10.9792 44.6782C10.7791 44.8718 10.6667 45.1343 10.6667 45.408C10.6667 45.6817 10.7791 45.9442 10.9792 46.1377C11.1792 46.3313 11.4505 46.44 11.7334 46.44H13.8667C14.1496 46.44 14.421 46.3313 14.621 46.1377C14.821 45.9442 14.9334 45.6817 14.9334 45.408C14.9334 45.1343 14.821 44.8718 14.621 44.6782C14.421 44.4847 14.1496 44.376 13.8667 44.376Z" fill="black"/>
<path d="M25.6 45.408C25.6 45.1343 25.4876 44.8718 25.2876 44.6782C25.0875 44.4847 24.8162 44.376 24.5333 44.376H18.1333C17.8504 44.376 17.5791 44.4847 17.3791 44.6782C17.179 44.8718 17.0667 45.1343 17.0667 45.408C17.0667 45.6817 17.179 45.9442 17.3791 46.1377C17.5791 46.3313 17.8504 46.44 18.1333 46.44H24.5333C24.8162 46.44 25.0875 46.3313 25.2876 46.1377C25.4876 45.9442 25.6 45.6817 25.6 45.408Z" fill="black"/>
<path d="M13.8667 49.5361H11.7334C11.4505 49.5361 11.1792 49.6449 10.9792 49.8384C10.7791 50.0319 10.6667 50.2944 10.6667 50.5681C10.6667 50.8418 10.7791 51.1043 10.9792 51.2979C11.1792 51.4914 11.4505 51.6001 11.7334 51.6001H13.8667C14.1496 51.6001 14.421 51.4914 14.621 51.2979C14.821 51.1043 14.9334 50.8418 14.9334 50.5681C14.9334 50.2944 14.821 50.0319 14.621 49.8384C14.421 49.6449 14.1496 49.5361 13.8667 49.5361Z" fill="black"/>
<path d="M18.1333 49.5361C17.8504 49.5361 17.5791 49.6449 17.3791 49.8384C17.179 50.0319 17.0667 50.2944 17.0667 50.5681C17.0667 50.8418 17.179 51.1043 17.3791 51.2979C17.5791 51.4914 17.8504 51.6001 18.1333 51.6001H20.2667C20.5495 51.6001 20.8209 51.4914 21.0209 51.2979C21.2209 51.1043 21.3333 50.8418 21.3333 50.5681C21.3333 50.2944 21.2209 50.0319 21.0209 49.8384C20.8209 49.6449 20.5495 49.5361 20.2667 49.5361H18.1333Z" fill="black"/>
<path d="M5.33327 14.4478C5.92237 14.4478 6.39993 13.9857 6.39993 13.4158C6.39993 12.8458 5.92237 12.3838 5.33327 12.3838C4.74416 12.3838 4.2666 12.8458 4.2666 13.4158C4.2666 13.9857 4.74416 14.4478 5.33327 14.4478Z" fill="black"/>
<path d="M39.4666 14.4478C40.0557 14.4478 40.5332 13.9857 40.5332 13.4158C40.5332 12.8458 40.0557 12.3838 39.4666 12.3838C38.8775 12.3838 38.3999 12.8458 38.3999 13.4158C38.3999 13.9857 38.8775 14.4478 39.4666 14.4478Z" fill="black"/>
<path d="M5.33327 57.792C5.92237 57.792 6.39993 57.33 6.39993 56.76C6.39993 56.1901 5.92237 55.728 5.33327 55.728C4.74416 55.728 4.2666 56.1901 4.2666 56.76C4.2666 57.33 4.74416 57.792 5.33327 57.792Z" fill="black"/>
</svg>
